<svg xmlns="http://www.w3.org/2000/svg" xmlns:xlink="http://www.w3.org/1999/xlink" width="2652" height="1694.07"><g transform="translate(1849 1282.066957787482)"><path d="M-37.13-398.52H-204.4c-3.8 0-6.9 2.87-6.9 6.64V-351c0 3.94 3.1 6.8 6.9 6.8h167.27c3.8 0 6.88-2.86 6.88-6.8v-40.88c0-3.77-2.9-6.64-6.88-6.64zm-158.95 47.7c-3.44 0-6.52-3.06-6.52-6.46s3.08-6.28 6.52-6.28c3.62 0 6.52 2.87 6.52 6.28 0 3.4-3.08 6.45-6.52 6.45zm152.43-2.7h-36.57c-1.44 0-2.17-.72-2.17-1.97s.74-2.14 2.18-2.14h36.57c1.27 0 2.18.9 2.18 2.15 0 1.26-.9 1.98-2.18 1.98zm0-6.63h-36.57c-1.44 0-2.17-.9-2.17-2.15 0-1.26.74-2.15 2.18-2.15h36.57c1.27 0 2.18.9 2.18 2.15s-.9 2.15-2.18 2.15zm0-6.8h-36.57c-1.44 0-2.17-.73-2.17-2.17 0-1.25.74-1.97 2.18-1.97h36.57c1.27 0 2.18.73 2.18 1.98 0 1.26-.9 2.16-2.18 2.16zM-37.13-461.1H-204.4c-3.8 0-6.9 3.06-6.9 6.83v40.87c0 3.77 3.1 6.8 6.9 6.8h167.27c3.8 0 6.88-3.03 6.88-6.8v-40.87c0-3.77-2.9-6.82-6.88-6.82zm-158.95 47.7c-3.44 0-6.52-2.87-6.52-6.27 0-3.4 3.08-6.28 6.52-6.28 3.62 0 6.52 2.87 6.52 6.28 0 3.4-3.08 6.27-6.52 6.27zm152.43-2.5h-36.57c-1.44 0-2.17-.73-2.17-2.16 0-1.25.74-1.97 2.18-1.97h36.57c1.27 0 2.18.72 2.18 1.97 0 1.26-.9 2.15-2.18 2.15zm0-6.64h-36.57c-1.44 0-2.17-.9-2.17-2.15s.74-2.14 2.18-2.14h36.57c1.27 0 2.18.9 2.18 2.15 0 1.26-.9 2.16-2.18 2.16zm0-6.8h-36.57c-1.44 0-2.17-.9-2.17-2.17 0-1.26.74-2.16 2.18-2.16h36.57c1.27 0 2.18.9 2.18 2.15s-.9 2.15-2.18 2.15zM-37.13-523.48H-204.4c-3.8 0-6.9 2.87-6.9 6.82v40.87c0 3.78 3.1 6.64 6.9 6.64h167.27c3.8 0 6.88-2.86 6.88-6.63v-40.86c0-3.77-2.9-6.82-6.88-6.82zm-158.95 47.7c-3.44 0-6.52-2.88-6.52-6.28 0-3.4 3.08-6.46 6.52-6.46 3.62 0 6.52 3.05 6.52 6.46 0 3.4-3.08 6.27-6.52 6.27zm152.43-2.52h-36.57c-1.44 0-2.17-.9-2.17-2.15s.74-2.15 2.18-2.15h36.57c1.27 0 2.18.9 2.18 2.15 0 1.26-.9 2.15-2.18 2.15zm0-6.8h-36.57c-1.44 0-2.17-.73-2.17-2.16 0-1.26.74-1.97 2.18-1.97h36.57c1.27 0 2.18.7 2.18 1.97 0 1.43-.9 2.15-2.18 2.15zm0-6.64h-36.57c-1.44 0-2.17-.9-2.17-2.16 0-1.25.74-2.15 2.18-2.15h36.57c1.27 0 2.18.9 2.18 2.15 0 .9-.9 2.16-2.18 2.16z" fill="#57b177"/><path d="M-253-311.5c0-2.75 2.24-5 5-5H6.46c2.76 0 5 2.25 5 5v50.32c0 2.76-2.24 5-5 5H-248c-2.76 0-5-2.24-5-5z" fill="none"/><use xlink:href="#a" transform="matrix(1,0,0,1,-248,-311.4882764269615) translate(69.87037037037037 21.333333333333336)"/><use xlink:href="#b" transform="matrix(1,0,0,1,-248,-311.4882764269615) translate(13.537037037037038 53.333333333333336)"/><use xlink:href="#c" transform="matrix(1,0,0,1,-248,-311.4882764269615) translate(131.9074074074074 53.333333333333336)"/><path d="M332.74-289.93h79.35v-197.1h-79.36v197.1zm65.82-113.72h-21.48v-17.14h21.48v17.15zm-53.37-25.42v-17.15h21.46v17.15H345.2zm32.35 0v-17.15h21.47v17.15h-21.47zm-.47-42.57h21.48v17.14h-21.48v-17.14zm-31.9 0h21.48v17.14H345.2v-17.14zm0 50.85h21.48v17.15H345.2v-17.14zm53.38 93.82h-21.48v-17.15h21.48v17.15zM345.2-352.4v-17.15h21.46v17.15H345.2zm32.35 0v-17.15h21.47v17.15h-21.47zm-.47-42.58h21.48v17.15h-21.48v-17.15zm-31.9 0h21.48v17.15H345.2v-17.15zm0 50.85h21.48v17.15H345.2v-17.15zm133.2-78.64v-20.5h-11.5v-19.5h-8.42v-18.33h-6.7v18.33h-8.4v19.5h-11.5v20.5h-9.34v132.84h65.82v-132.84h-9.96zm-23.96 79.83h-21.48v-16.95h21.48v16.96zm0-52.04h-21.48v-17.14h21.48v17.14zm25.05 25.82H458v-16.95h21.47v16.94z" fill="#b391b5"/><path d="M278.54-541.14c0-2.76 2.24-5 5-5H538c2.76 0 5 2.24 5 5v44.6c0 2.76-2.24 5-5 5H283.54c-2.76 0-5-2.24-5-5z" fill="none"/><use xlink:href="#d" transform="matrix(1,0,0,1,283.53860687744054,-541.1426491994177) translate(32.16666666666666 27.833333333333336)"/><use xlink:href="#e" transform="matrix(1,0,0,1,283.53860687744054,-541.1426491994177) translate(157.7962962962963 27.833333333333336)"/><path d="M-1553.66-530.36c0 15.44-14.42 27.92-32.2 27.92-17.85 0-32.27-12.48-32.27-27.92 0-15.45 14.42-27.93 32.28-27.93 17.77 0 32.2 12.5 32.2 27.94zM-1613.5-499.7h55.94c17.23 0 17.23 0 17.23 15.04 0 15.02 0 15.02-17.23 15.02h-55.94c-17.23 0-17.23 0-17.23-15.02 0-15.03 0-15.03 17.23-15.03z" fill="#83bbe5"/><path d="M-1609.7-474.5h47.6v61.98h-47.6v-62z" fill="#83bbe5"/><path d="M-1609.7-414.84h21.5v68.34h-21.5v-68.34zM-1582.04-414.2h19.95v67.27h-19.94v-67.28zM-1630.55-488.47h16.32v59.87h-16.32v-59.87zM-1556.92-487.63h16.5v59.88h-16.5v-59.88zM-1431.7-530.96h-76.4c-1.35 0-2.8.96-2.8 2.3v41.43c0 1.15 1.12 2.96 2.8 2.96h32.58v4.4c0 1.43-2.45 4-4.34 4h-5.45c-6 0-10.35 1.34-10.35 4.2 0 1.34-.23 1.34 5.67 1.34h3c4.68 0 5.45-2.3 10.13-2.3h11.68c4.56 0 8.12 2.3 11.12 2.3h3c6 0 6-.2 6-1.33 0-2.58-4.66-4.2-10.56-4.2h-5.57c-1.56 0-3.78-2.58-3.78-4v-4.4h32.7c1.34 0 2.67-1.63 2.67-2.97v-41.43c.67-1.15-.44-2.3-2.1-2.3zm-5.33 39.53h-65.4V-524h65.4v32.57z" fill="#83bbe5"/><path d="M-1516.12-494v-34.66c0-3.73 3.56-6.97 8.23-6.97h21.7v-25.5c0-2.58-2.44-4.68-5.45-4.68h-43.5c-3 0-5.44 2.1-5.44 4.67v90.6h40.05V-472.14c0-1.6.56-5.82 7.57-7.92h-39.17v-4.67h17.25c-.66-.96-.9-2.1-.9-2.96v-1.63h-16.34V-494h16.02zm-16.24-60.16h38.04v6.88h-38.04v-6.88z" fill="#83bbe5"/><path d="M-1674-332.63c0-2.76 2.24-5 5-5h254.46c2.76 0 5 2.24 5 5v44.6c0 2.76-2.24 5-5 5H-1669c-2.76 0-5-2.24-5-5z" fill="none"/><use xlink:href="#f" transform="matrix(1,0,0,1,-1669,-332.6286153671869) translate(65.42592592592592 27.833333333333336)"/><path d="M43.65-428.87H278.2" stroke="#999" stroke-width="10" fill="none"/><path d="M278.2-428.87l-14.26 4.63v-9.27z" stroke="#999" stroke-width="10" fill="#999"/><path d="M373-242.87v108.4" stroke="#999" stroke-width="10" fill="none"/><path d="M373-134.47l-4.64-14.27h9.28z" stroke="#999" stroke-width="10" fill="#999"/><path d="M443-134.47v-108.4" stroke="#999" stroke-width="10" fill="none"/><path d="M443-242.87l4.64 14.26h-9.28z" stroke="#999" stroke-width="10" fill="#999"/><path d="M107-518.48c0-2.76 2.24-5 5-5h110c2.76 0 5 2.24 5 5v67.85c0 2.76-2.24 5-5 5H112c-2.76 0-5-2.24-5-5z" fill="none"/><use xlink:href="#g" transform="matrix(1,0,0,1,112,-518.477438136827) translate(-4.783950617283367 25.1111111111112)"/><use xlink:href="#h" transform="matrix(1,0,0,1,112,-518.477438136827) translate(11.26543209876587 51.7777777777776)"/><path d="M-1191.63-289.23v136.9h181.04v-136.9h-181.03zm172 125.8h-165.3v-97.2h165.3v97.2z" fill="#ffc374"/><path d="M-1114.15-242.82h-55.03v61.74h55.03v-61.74zM-1035.4-189.84h-59v8.76h59v-8.76zM-1035.4-207.5h-59v8.76h59v-8.76zM-1035.4-225.16h-59v8.76h59v-8.76zM-1035.4-242.82h-59v8.76h59v-8.76z" fill="#ffc374"/><path d="M-1234.46-348c0-2.76 2.24-5 5-5H-975c2.76 0 5 2.24 5 5v62.93c0 2.76-2.24 5-5 5h-254.46c-2.76 0-5-2.24-5-5z" fill="none"/><use xlink:href="#i" transform="matrix(1,0,0,1,-1229.4613931225595,-347.9956331877729) translate(27.055555555555543 36.833333333333336)"/><use xlink:href="#j" transform="matrix(1,0,0,1,-1229.4613931225595,-347.9956331877729) translate(176.3148148148148 36.833333333333336)"/><path d="M-1409.54-310.33L-1264-224.9" fill="none"/><path d="M-1404.54-310.33c0 2.76-2.24 5-5 5s-5-2.24-5-5 2.24-5 5-5 5 2.24 5 5zm18.2 10.68c0 2.76-2.24 5-5 5-2.77 0-5-2.24-5-5s2.23-5 5-5c2.76 0 5 2.24 5 5zm18.2 10.68c0 2.76-2.25 5-5 5-2.78 0-5-2.24-5-5s2.22-5 5-5c2.75 0 5 2.24 5 5zm18.18 10.68c0 2.77-2.24 5-5 5s-5-2.23-5-5c0-2.75 2.24-5 5-5s5 2.25 5 5zm18.2 10.7c0 2.75-2.25 5-5 5-2.77 0-5-2.25-5-5 0-2.77 2.23-5 5-5 2.75 0 5 2.23 5 5zm18.18 10.67c0 2.76-2.24 5-5 5s-5-2.24-5-5 2.24-5 5-5 5 2.24 5 5zm18.2 10.68c0 2.76-2.24 5-5 5-2.77 0-5-2.24-5-5s2.23-5 5-5c2.76 0 5 2.24 5 5zm18.2 10.68c0 2.76-2.25 5-5 5-2.77 0-5-2.24-5-5s2.23-5 5-5c2.75 0 5 2.24 5 5z" fill="#999"/><path d="M-1407-314.64l-2.54 4.3v-5.8z" fill="#999"/><path d="M-1414-589.5l140-59.13" fill="none"/><path d="M-1409-589.5c0 2.76-2.24 5-5 5s-5-2.24-5-5 2.24-5 5-5 5 2.24 5 5zm17.5-7.4c0 2.77-2.24 5-5 5s-5-2.23-5-5c0-2.75 2.24-5 5-5s5 2.25 5 5zm17.5-7.38c0 2.76-2.24 5-5 5s-5-2.24-5-5c0-2.77 2.24-5 5-5s5 2.23 5 5zm17.5-7.4c0 2.77-2.24 5-5 5s-5-2.23-5-5c0-2.76 2.24-5 5-5s5 2.24 5 5zm17.5-7.4c0 2.78-2.24 5-5 5s-5-2.22-5-5c0-2.75 2.24-5 5-5s5 2.25 5 5zm17.5-7.38c0 2.77-2.24 5-5 5s-5-2.23-5-5c0-2.76 2.24-5 5-5s5 2.24 5 5zm17.5-7.4c0 2.77-2.24 5-5 5s-5-2.23-5-5c0-2.75 2.24-5 5-5s5 2.25 5 5zm17.5-7.38c0 2.76-2.24 5-5 5s-5-2.24-5-5 2.24-5 5-5 5 2.24 5 5zm17.5-7.4c0 2.77-2.24 5-5 5s-5-2.23-5-5c0-2.75 2.24-5 5-5s5 2.25 5 5z" fill="#999"/><path d="M278.54 131.27c0-2.76 2.24-5 5-5H538c2.76 0 5 2.24 5 5v44.6c0 2.76-2.24 5-5 5H283.54c-2.76 0-5-2.24-5-5z" fill="none"/><use xlink:href="#k" transform="matrix(1,0,0,1,283.53860687744054,131.2691284464958) translate(29.203703703703695 27.833333333333336)"/><use xlink:href="#e" transform="matrix(1,0,0,1,283.53860687744054,131.2691284464958) translate(160.75925925925927 27.833333333333336)"/><path d="M332.74 106.96h79.35v-197.1h-79.36v197.1zM398.56-6.76h-21.48V-23.9h21.48v17.14zM345.2-32.18v-17.15h21.46v17.15H345.2zm32.35 0v-17.15h21.47v17.15h-21.47zm-.47-42.58h21.48v17.15h-21.48v-17.16zm-31.9 0h21.48v17.15H345.2v-17.16zm0 50.85h21.48v17.14H345.2V-23.9zm53.38 93.8h-21.48V52.77h21.48V69.9zM345.2 44.5V27.34h21.46v17.14H345.2zm32.35 0V27.34h21.47v17.14h-21.47zm-.47-42.57h21.48v17.16h-21.48V1.9zm-31.9 0h21.48v17.16H345.2V1.9zm0 50.86h21.48V69.9H345.2V52.77zm133.2-78.64v-20.5h-11.5v-19.5h-8.42v-18.34h-6.7v18.33h-8.4v19.53h-11.5v20.5h-9.34v132.83h65.82V-25.88h-9.96zm-23.96 79.82h-21.48V37h21.48v16.94zm0-52.03h-21.48v-17.13h21.48V1.9zm25.05 25.83H458V10.78h21.47v16.95z" fill="#b391b5"/><path d="M-1069.96 113.83c0 15.1-14.1 27.32-31.48 27.32-17.48 0-31.58-12.2-31.58-27.32 0-15.1 14.1-27.32 31.58-27.32 17.38 0 31.48 12.22 31.48 27.33zM-1128.5 143.84h54.73c16.85 0 16.85 0 16.85 14.7 0 14.68 0 14.68-16.85 14.68h-54.72c-16.84 0-16.84 0-16.84-14.7 0-14.68 0-14.68 16.85-14.68z" fill="#ffc374"/><path d="M-1124.77 168.46h46.56v60.64h-46.57v-60.64z" fill="#ffc374"/><path d="M-1124.77 226.82h21.02v66.84h-21.02v-66.84zM-1097.72 227.44h19.5v65.8h-19.5v-65.8zM-1145.17 154.8h15.97v58.57h-15.97V154.8zM-1073.15 155.63h16.14v58.57h-16.15v-58.57z" fill="#ffc374"/><path d="M-1233.23 324.08c0-2.76 2.24-5 5-5h254.46c2.76 0 5 2.24 5 5V387c0 2.76-2.24 5-5 5h-254.46c-2.76 0-5-2.24-5-5z" fill="none"/><use xlink:href="#a" transform="matrix(1,0,0,1,-1228.2306965612795,324.0771470160116) translate(69.87037037037037 21.333333333333336)"/><use xlink:href="#l" transform="matrix(1,0,0,1,-1228.2306965612795,324.0771470160116) translate(68.38888888888889 53.333333333333336)"/><path d="M-1104-116.5V33" fill="none"/><path d="M-1099-116.5c0 2.77-2.24 5-5 5s-5-2.23-5-5c0-2.75 2.24-5 5-5s5 2.25 5 5zm0 21.37c0 2.76-2.24 5-5 5s-5-2.24-5-5 2.24-5 5-5 5 2.24 5 5zm0 21.35c0 2.76-2.24 5-5 5s-5-2.24-5-5 2.24-5 5-5 5 2.24 5 5zm0 21.36c0 2.76-2.24 5-5 5s-5-2.24-5-5 2.24-5 5-5 5 2.24 5 5zm0 21.35c0 2.77-2.24 5-5 5s-5-2.23-5-5c0-2.76 2.24-5 5-5s5 2.24 5 5zm0 21.36c0 2.75-2.24 5-5 5s-5-2.25-5-5c0-2.77 2.24-5 5-5s5 2.23 5 5zm0 21.35c0 2.76-2.24 5-5 5s-5-2.24-5-5 2.24-5 5-5 5 2.24 5 5z" fill="#999"/><path d="M488-212.5c0-2.76 2.24-5 5-5h110c2.76 0 5 2.24 5 5v67.85c0 2.76-2.24 5-5 5H493c-2.76 0-5-2.24-5-5z" fill="none"/><use xlink:href="#m" transform="matrix(1,0,0,1,493,-212.49708879184843) translate(6.944444444444926 25.1111111111112)"/><use xlink:href="#h" transform="matrix(1,0,0,1,493,-212.49708879184843) translate(11.26543209876587 51.7777777777776)"/><path d="M-943.6-215.03h190" stroke="#999" stroke-width="10" fill="none"/><path d="M-753.6-215.03l-14.26 4.63v-9.27z" stroke="#999" stroke-width="10" fill="#999"/><path d="M-546.38-71.44c-31.4 0-57-22.46-57-50 0-27.55 25.6-50 57-50s57 22.45 57 50c0 27.54-25.6 50-57 50zm-13.97-26.06c4.17 12.28 9.98 18.43 13.97 18.43 4 0 10.53-5.5 13.97-18.43-4.72-.43-9.44-.85-13.98-.85-4.54 0-9.26.42-13.97.85zm-20.87 4.66c5.26 5.08 11.6 8.68 18.5 10.8-2.9-4.23-4.53-8.68-6.35-14.4-4.53 1.05-8.7 2.1-12.15 3.6zm58.07-3.6c-1.63 5.72-4 10.38-6.35 14.4 6.9-2.12 13.43-6.14 18.5-11.23-3.44-1.06-7.43-2.12-12.15-3.17zm-70.96-21.4c.53 6.56 2.9 12.28 7.07 18.43 4.53-2.13 9.8-3.6 15.6-4.67-1.08-4.66-1.08-9.1-1.63-13.77h-21.05zm72.76 14.4c5.8.85 11.8 2.33 15.8 4.45 4-6.13 6.35-11.64 6.9-18.42h-21.42c.54 4.66-.2 8.9-1.28 13.98zm-42.46-14.4c0 4.02.54 8.26 1.27 12.28 5.26-.42 11.07-1.05 16.33-1.05 5.26 0 10.35.4 16.34 1.04.54-4.02 1.08-8.26 1.08-12.28h-35.02zm65.7-8.06c-.55-7.2-3.45-13.77-8.17-19.9-4.54 2.1-9.8 3.6-15.07 4.65 1.1 4.45 1.64 9.75 1.64 15.25h21.6zm-30.3 0c0-4.66-.56-9.74-1.65-13.77-5.26.43-10.52 1.06-15.8 1.06-5.25 0-10.5-.64-15.6-1.07-1.26 4.03-1.8 9.1-1.8 13.77h34.84zm-44.1 0c0-5.08.53-10.38 1.62-15.25-5.8-1.06-10.53-2.54-15.06-4.66-4.72 6.13-7.63 12.7-8.7 19.9h22.13zm12.87-20.97c4.54.42 9.26 1.06 13.8 1.06 4.7 0 9.43-.65 13.97-1.07-4-11.87-9.8-16.95-13.98-16.95-4.53 0-10.34 5.3-13.8 16.95zm-20.5-4.66c3.44 1.06 7.62 2.54 11.8 2.96 1.62-5.08 3.44-9.1 6.34-12.7-7.07 2.1-12.87 5.08-18.14 9.74zm50.63-9.75c2.36 3.6 4.54 8.26 6.35 12.7 4.17-.83 8.17-1.9 11.8-2.95-6-4.66-11.8-7.63-18.15-9.75z" fill="#ffc374"/><path d="M-612.62-124.4c1.27-28.62 26.13-52.13 58.25-55.74v-92.8c0-5.72-5.26-10.38-11.8-10.38h-92.9c-6.55 0-11.8 4.66-11.8 10.38V-74h87.3c-8.73-5.07-15.8-12.06-21.07-20.33h-48.82v-10.38h43.56c-1.1-2.97-1.63-6.58-2.36-10.18h-41.2v-10.17h40.66v.43h.18v.2zm-40.65-127.78h81.3v10.4h-81.3v-10.4z" fill="#ffc374"/><path d="M-733-342.08c0-2.76 2.24-5 5-5h254.46c2.76 0 5 2.24 5 5v62.92c0 2.76-2.24 5-5 5H-728c-2.76 0-5-2.24-5-5z" fill="none"/><use xlink:href="#n" transform="matrix(1,0,0,1,-728,-342.0829694323146) translate(56.5 36.833333333333336)"/><use xlink:href="#o" transform="matrix(1,0,0,1,-728,-342.0829694323146) translate(115.53703703703704 36.833333333333336)"/><path d="M-473-205.18l190-68.98" stroke="#999" stroke-width="10" fill="none"/><path d="M-283-274.16l-11.83 9.23-3.16-8.72z" stroke="#999" stroke-width="10" fill="#999"/><path d="M-74.08-1262.07h-93.72c-6.44 0-11.7 4.67-11.7 10.4v201.6h117v-201.6c0-5.73-5.27-10.4-11.58-10.4zm-5.85 191.23h-82.02v-10.4h82.02v10.4zm0-20.57h-82.02v-10.4h82.02v10.4zm0-129.33h-82.02v-10.38h82.02v10.37z" fill="#57b177"/><path d="M-253-1030.53c0-2.76 2.24-5 5-5H6.46c2.76 0 5 2.24 5 5v62.92c0 2.76-2.24 5-5 5H-248c-2.76 0-5-2.24-5-5z" fill="none"/><use xlink:href="#p" transform="matrix(1,0,0,1,-248,-1030.528384279476) translate(49.16666666666666 36.833333333333336)"/><use xlink:href="#q" transform="matrix(1,0,0,1,-248,-1030.528384279476) translate(171.83333333333331 36.833333333333336)"/><path d="M-1084.05-1222.07H-1150v120h96v-90l-30.05-30zm24 114h-84v-108h57.03v27h26.97v81z" fill="#57b177"/><path d="M-1128.97-1174.07h53.94v6h-53.94v-6zM-1128.97-1159.07h53.94v6h-53.94v-6zM-1128.97-1144.07h53.94v6h-53.94v-6zM-1128.97-1129.07h53.94v6h-53.94v-6z" fill="#57b177"/><path d="M-1054-1222.07v120h-96v-120h96zM-1233.46-1077.6c0-2.77 2.24-5 5-5H-974c2.76 0 5 2.23 5 5v64c0 2.76-2.24 5-5 5h-254.46c-2.76 0-5-2.24-5-5z" fill="none"/><use xlink:href="#r" transform="matrix(1,0,0,1,-1228.4613931225595,-1077.6055312954877) translate(82.46296296296296 21.333333333333336)"/><use xlink:href="#b" transform="matrix(1,0,0,1,-1228.4613931225595,-1077.6055312954877) translate(36.5 53.333333333333336)"/><use xlink:href="#s" transform="matrix(1,0,0,1,-1228.4613931225595,-1077.6055312954877) translate(154.87037037037038 53.333333333333336)"/><path d="M-1190.7-705.42v136.9h181.03v-136.9h-181.04zm171.98 125.8h-165.3v-97.2h165.3v97.2z" fill="#ffc374"/><path d="M-1113.22-659h-55.04v61.73h55.04V-659zM-1034.47-606.03h-59.02v8.76h59.03v-8.76zM-1034.47-623.7h-59.02v8.77h59.03v-8.76zM-1034.47-641.35h-59.02v8.76h59.03v-8.75zM-1034.47-659h-59.02v8.75h59.03V-659z" fill="#ffc374"/><path d="M-1234-796.9c0-2.75 2.24-5 5-5h254.46c2.76 0 5 2.25 5 5v94.47c0 2.76-2.24 5-5 5H-1229c-2.76 0-5-2.24-5-5z" fill="none"/><use xlink:href="#a" transform="matrix(1,0,0,1,-1229.0000000000002,-796.8853716090659) translate(69.87037037037037 36.833333333333336)"/><use xlink:href="#t" transform="matrix(1,0,0,1,-1229.0000000000002,-796.8853716090659) translate(13.944444444444429 68.83333333333334)"/><use xlink:href="#u" transform="matrix(1,0,0,1,-1229.0000000000002,-796.8853716090659) translate(139.57407407407408 68.83333333333334)"/><path d="M-942.54-628.63h190" stroke="#999" stroke-width="10" fill="none"/><path d="M-752.54-628.63L-766.8-624v-9.26z" stroke="#999" stroke-width="10" fill="#999"/><path d="M-472.54-638.48l190 78.83" stroke="#999" stroke-width="10" fill="none"/><path d="M-282.54-559.65l-14.95-1.18 3.56-8.57z" stroke="#999" stroke-width="10" fill="#999"/><path d="M-550.76-526.43c-31.4 0-56.98-22.46-56.98-50s25.6-50 56.98-50c31.4 0 57 22.46 57 50s-25.6 50-57 50zm-13.97-26.06c4.17 12.3 9.98 18.45 13.97 18.45 4 0 10.53-5.5 13.98-18.44-4.72-.4-9.44-.84-13.98-.84-4.53 0-9.25.43-13.97.85zm-20.87 4.67c5.26 5.1 11.6 8.7 18.5 10.8-2.9-4.23-4.53-8.68-6.34-14.4-4.54 1.06-8.7 2.12-12.16 3.6zm58.07-3.6c-1.63 5.72-4 10.38-6.35 14.4 6.9-2.1 13.43-6.14 18.5-11.22-3.43-1.06-7.43-2.12-12.15-3.18zm-70.96-21.4c.56 6.57 2.92 12.3 7.1 18.43 4.53-2.1 9.8-3.6 15.6-4.66-1.1-4.66-1.1-9.1-1.63-13.77h-21.06zm72.8 14.4c5.8.86 11.8 2.34 15.78 4.46 4-6.15 6.35-11.65 6.9-18.43h-21.42c.54 4.66-.18 8.9-1.27 13.98zm-42.48-14.4c0 4.03.55 8.26 1.27 12.3 5.26-.43 11.06-1.07 16.33-1.07 5.26 0 10.34.42 16.33 1.06.54-4.03 1.1-8.26 1.1-12.3h-35.04zm65.7-8.05c-.55-7.2-3.45-13.77-8.17-19.92-4.53 2.12-9.8 3.6-15.06 4.66 1.08 4.45 1.62 9.75 1.62 15.26h21.6zm-30.3 0c0-4.66-.55-9.75-1.64-13.77-5.26.42-10.53 1.06-15.8 1.06-5.25 0-10.52-.63-15.6-1.05-1.27 4.02-1.8 9.1-1.8 13.77h34.83zm-44.1 0c0-5.1.54-10.38 1.62-15.26-5.8-1.05-10.52-2.54-15.06-4.66-4.72 6.15-7.62 12.72-8.7 19.92h22.13zm12.88-20.98c4.53.43 9.25 1.06 13.8 1.06 4.7 0 9.43-.63 13.96-1.06-4-11.86-9.8-16.95-13.97-16.95-4.55 0-10.36 5.3-13.8 16.94zm-20.5-4.66c3.44 1.06 7.6 2.55 11.78 2.97 1.64-5.1 3.45-9.1 6.36-12.7-7.08 2.1-12.9 5.07-18.15 9.73zm50.62-9.74c2.36 3.6 4.54 8.26 6.35 12.7 4.18-.84 8.17-1.9 11.8-2.96-6-4.66-11.8-7.62-18.15-9.74z" fill="#ffc374"/><path d="M-617-579.4c1.27-28.6 26.14-52.12 58.26-55.72v-92.8c0-5.72-5.26-10.4-11.8-10.4h-92.92c-6.53 0-11.8 4.68-11.8 10.4v198.95h87.3c-8.7-5.08-15.8-12.08-21.05-20.34h-48.83v-10.4h43.56c-1.1-2.96-1.64-6.56-2.36-10.16h-41.2v-10.17h40.65v.42h.18v.2zm-40.65-127.76h81.3v10.38h-81.3v-10.38z" fill="#ffc374"/><path d="M-752.38-797.07c0-2.76 2.24-5 5-5h254.47c2.75 0 5 2.24 5 5v62.93c0 2.76-2.25 5-5 5H-747.4c-2.76 0-5-2.24-5-5z" fill="none"/><g><use xlink:href="#v" transform="matrix(1,0,0,1,-747.3755195868498,-797.0669577874819) translate(50.79629629629629 36.833333333333336)"/><use xlink:href="#w" transform="matrix(1,0,0,1,-747.3755195868498,-797.0669577874819) translate(58.203703703703695 36.833333333333336)"/><use xlink:href="#x" transform="matrix(1,0,0,1,-747.3755195868498,-797.0669577874819) translate(121.24074074074073 36.833333333333336)"/></g><path d="M-1094-852.07v-130" fill="none"/><path d="M-1089-852.07c0 2.76-2.24 5-5 5s-5-2.24-5-5 2.24-5 5-5 5 2.24 5 5zm0-18.57c0 2.76-2.24 5-5 5s-5-2.24-5-5 2.24-5 5-5 5 2.24 5 5zm0-18.57c0 2.75-2.24 5-5 5s-5-2.25-5-5c0-2.77 2.24-5 5-5s5 2.23 5 5zm0-18.58c0 2.76-2.24 5-5 5s-5-2.24-5-5 2.24-5 5-5 5 2.24 5 5zm0-18.57c0 2.76-2.24 5-5 5s-5-2.24-5-5 2.24-5 5-5 5 2.24 5 5zm0-18.57c0 2.76-2.24 5-5 5s-5-2.24-5-5c0-2.77 2.24-5 5-5s5 2.23 5 5zm0-18.58c0 2.77-2.24 5-5 5s-5-2.23-5-5c0-2.76 2.24-5 5-5s5 2.24 5 5zm0-18.57c0 2.76-2.24 5-5 5s-5-2.24-5-5 2.24-5 5-5 5 2.24 5 5z" fill="#999"/><path d="M-944-1132.07h667.85" stroke="#999" stroke-width="10" fill="none"/><path d="M-276.15-1132.07l-14.26 4.64v-9.27z" stroke="#999" stroke-width="10" fill="#999"/><path d="M-124-932.07v290" stroke="#999" stroke-width="10" fill="none"/><path d="M-124-642.07l-4.64-14.26h9.28z" stroke="#999" stroke-width="10" fill="#999"/><defs><path fill="#333" d="M199 0l-22-63H83L61 0H9l90-248h61L250 0h-51zm-33-102l-36-108c-10 38-24 72-36 108h72" id="y"/><path fill="#333" d="M121-226c-27-7-43 5-38 36h38v33H83V0H34v-157H6v-33h28c-9-59 32-81 87-68v32" id="z"/><path fill="#333" d="M25-224v-37h50v37H25zM25 0v-190h50V0H25" id="A"/><path fill="#333" d="M135-194c87-1 58 113 63 194h-50c-7-57 23-157-34-157-59 0-34 97-39 157H25l-1-190h47c2 12-1 28 3 38 12-26 28-41 61-42" id="B"/><path fill="#333" d="M24-248c93 1 206-16 204 79-1 75-69 88-152 82V0H24v-248zm52 121c47 0 100 7 100-41 0-47-54-39-100-39v80" id="C"/><path fill="#333" d="M133-34C117-15 103 5 69 4 32 3 11-16 11-54c-1-60 55-63 116-61 1-26-3-47-28-47-18 1-26 9-28 27l-52-2c7-38 36-58 82-57s74 22 75 68l1 82c-1 14 12 18 25 15v27c-30 8-71 5-69-32zm-48 3c29 0 43-24 42-57-32 0-66-3-65 30 0 17 8 27 23 27" id="D"/><path fill="#333" d="M123 10C108 53 80 86 19 72V37c35 8 53-11 59-39L3-190h52l48 148c12-52 28-100 44-148h51" id="E"/><g id="a"><use transform="matrix(0.07407407407407408,0,0,0.07407407407407408,0,0)" xlink:href="#y"/><use transform="matrix(0.07407407407407408,0,0,0.07407407407407408,19.185185185185187,0)" xlink:href="#z"/><use transform="matrix(0.07407407407407408,0,0,0.07407407407407408,28.000000000000004,0)" xlink:href="#z"/><use transform="matrix(0.07407407407407408,0,0,0.07407407407407408,36.814814814814824,0)" xlink:href="#A"/><use transform="matrix(0.07407407407407408,0,0,0.07407407407407408,44.22222222222223,0)" xlink:href="#B"/><use transform="matrix(0.07407407407407408,0,0,0.07407407407407408,60.444444444444464,0)" xlink:href="#A"/><use transform="matrix(0.07407407407407408,0,0,0.07407407407407408,67.85185185185186,0)" xlink:href="#C"/><use transform="matrix(0.07407407407407408,0,0,0.07407407407407408,85.62962962962965,0)" xlink:href="#D"/><use transform="matrix(0.07407407407407408,0,0,0.07407407407407408,100.44444444444446,0)" xlink:href="#E"/></g><path fill="#333" d="M220-157c-53 9-28 100-34 157h-49v-107c1-27-5-49-29-50C55-147 81-57 75 0H25l-1-190h47c2 12-1 28 3 38 10-53 101-56 108 0 13-22 24-43 59-42 82 1 51 116 57 194h-49v-107c-1-25-5-48-29-50" id="F"/><path fill="#333" d="M185-48c-13 30-37 53-82 52C43 2 14-33 14-96s30-98 90-98c62 0 83 45 84 108H66c0 31 8 55 39 56 18 0 30-7 34-22zm-45-69c5-46-57-63-70-21-2 6-4 13-4 21h74" id="G"/><path fill="#333" d="M115-3C79 11 28 4 28-45v-112H4v-33h27l15-45h31v45h36v33H77v99c-1 23 16 31 38 25v30" id="H"/><g id="b"><use transform="matrix(0.07407407407407408,0,0,0.07407407407407408,0,0)" xlink:href="#C"/><use transform="matrix(0.07407407407407408,0,0,0.07407407407407408,17.77777777777778,0)" xlink:href="#D"/><use transform="matrix(0.07407407407407408,0,0,0.07407407407407408,32.592592592592595,0)" xlink:href="#E"/><use transform="matrix(0.07407407407407408,0,0,0.07407407407407408,47.40740740740741,0)" xlink:href="#F"/><use transform="matrix(0.07407407407407408,0,0,0.07407407407407408,71.11111111111111,0)" xlink:href="#G"/><use transform="matrix(0.07407407407407408,0,0,0.07407407407407408,85.92592592592592,0)" xlink:href="#B"/><use transform="matrix(0.07407407407407408,0,0,0.07407407407407408,102.14814814814814,0)" xlink:href="#H"/></g><path fill="#333" d="M67-125c0 54 23 88 75 88 28 0 53-7 68-21v-34h-60v-39h108v91C232-14 192 4 140 4 58 4 20-42 15-125 8-236 126-280 215-234c19 10 29 26 37 47l-47 15c-11-23-29-39-63-39-53 1-75 33-75 86" id="I"/><path fill="#333" d="M231 0h-52l-39-155L100 0H48L-1-190h46L77-45c9-52 24-97 36-145h53l37 145 32-145h46" id="J"/><g id="c"><use transform="matrix(0.07407407407407408,0,0,0.07407407407407408,0,0)" xlink:href="#I"/><use transform="matrix(0.07407407407407408,0,0,0.07407407407407408,20.740740740740744,0)" xlink:href="#D"/><use transform="matrix(0.07407407407407408,0,0,0.07407407407407408,35.55555555555556,0)" xlink:href="#H"/><use transform="matrix(0.07407407407407408,0,0,0.07407407407407408,44.370370370370374,0)" xlink:href="#G"/><use transform="matrix(0.07407407407407408,0,0,0.07407407407407408,59.18518518518519,0)" xlink:href="#J"/><use transform="matrix(0.07407407407407408,0,0,0.07407407407407408,79.92592592592594,0)" xlink:href="#D"/><use transform="matrix(0.07407407407407408,0,0,0.07407407407407408,94.74074074074078,0)" xlink:href="#E"/></g><path fill="#333" d="M230 0l2-204L168 0h-37L68-204 70 0H24v-248h70l56 185 57-185h69V0h-46" id="K"/><path fill="#333" d="M135-150c-39-12-60 13-60 57V0H25l-1-190h47c2 13-1 29 3 40 6-28 27-53 61-41v41" id="L"/><path fill="#333" d="M190-63c-7 42-38 67-86 67-59 0-84-38-90-98-12-110 154-137 174-36l-49 2c-2-19-15-32-35-32-30 0-35 28-38 64-6 74 65 87 74 30" id="M"/><path fill="#333" d="M114-157C55-157 80-60 75 0H25v-261h50l-1 109c12-26 28-41 61-42 86-1 58 113 63 194h-50c-7-57 23-157-34-157" id="N"/><g id="d"><use transform="matrix(0.07407407407407408,0,0,0.07407407407407408,0,0)" xlink:href="#K"/><use transform="matrix(0.07407407407407408,0,0,0.07407407407407408,22.148148148148152,0)" xlink:href="#G"/><use transform="matrix(0.07407407407407408,0,0,0.07407407407407408,36.96296296296297,0)" xlink:href="#L"/><use transform="matrix(0.07407407407407408,0,0,0.07407407407407408,47.33333333333334,0)" xlink:href="#M"/><use transform="matrix(0.07407407407407408,0,0,0.07407407407407408,62.14814814814816,0)" xlink:href="#N"/><use transform="matrix(0.07407407407407408,0,0,0.07407407407407408,78.37037037037038,0)" xlink:href="#D"/><use transform="matrix(0.07407407407407408,0,0,0.07407407407407408,93.18518518518519,0)" xlink:href="#B"/><use transform="matrix(0.07407407407407408,0,0,0.07407407407407408,109.40740740740742,0)" xlink:href="#H"/></g><path fill="#333" d="M182-130c37 4 62 22 62 59C244 23 116-4 24 0v-248c84 5 203-23 205 63 0 31-19 50-47 55zM76-148c40-3 101 13 101-30 0-44-60-28-101-31v61zm0 110c48-3 116 14 116-37 0-48-69-32-116-35v72" id="O"/><path fill="#333" d="M147 0L96-86 75-71V0H25v-261h50v150l67-79h53l-66 74L201 0h-54" id="P"/><g id="e"><use transform="matrix(0.07407407407407408,0,0,0.07407407407407408,0,0)" xlink:href="#O"/><use transform="matrix(0.07407407407407408,0,0,0.07407407407407408,19.185185185185187,0)" xlink:href="#D"/><use transform="matrix(0.07407407407407408,0,0,0.07407407407407408,34,0)" xlink:href="#B"/><use transform="matrix(0.07407407407407408,0,0,0.07407407407407408,50.22222222222223,0)" xlink:href="#P"/></g><path fill="#333" d="M67-125c0 53 21 87 73 88 37 1 54-22 65-47l45 17C233-25 199 4 140 4 58 4 20-42 15-125 8-235 124-281 211-232c18 10 29 29 36 50l-46 12c-8-25-30-41-62-41-52 0-71 34-72 86" id="Q"/><path fill="#333" d="M85 4C-2 5 27-109 22-190h50c7 57-23 150 33 157 60-5 35-97 40-157h50l1 190h-47c-2-12 1-28-3-38-12 25-28 42-61 42" id="R"/><path fill="#333" d="M137-138c1-29-70-34-71-4 15 46 118 7 119 86 1 83-164 76-172 9l43-7c4 19 20 25 44 25 33 8 57-30 24-41C81-84 22-81 20-136c-2-80 154-74 161-7" id="S"/><path fill="#333" d="M110-194c64 0 96 36 96 99 0 64-35 99-97 99-61 0-95-36-95-99 0-62 34-99 96-99zm-1 164c35 0 45-28 45-65 0-40-10-65-43-65-34 0-45 26-45 65 0 36 10 65 43 65" id="T"/><g id="f"><use transform="matrix(0.07407407407407408,0,0,0.07407407407407408,0,0)" xlink:href="#Q"/><use transform="matrix(0.07407407407407408,0,0,0.07407407407407408,19.185185185185187,0)" xlink:href="#R"/><use transform="matrix(0.07407407407407408,0,0,0.07407407407407408,35.40740740740741,0)" xlink:href="#S"/><use transform="matrix(0.07407407407407408,0,0,0.07407407407407408,50.22222222222223,0)" xlink:href="#H"/><use transform="matrix(0.07407407407407408,0,0,0.07407407407407408,59.037037037037045,0)" xlink:href="#T"/><use transform="matrix(0.07407407407407408,0,0,0.07407407407407408,75.25925925925927,0)" xlink:href="#F"/><use transform="matrix(0.07407407407407408,0,0,0.07407407407407408,98.96296296296298,0)" xlink:href="#G"/><use transform="matrix(0.07407407407407408,0,0,0.07407407407407408,113.7777777777778,0)" xlink:href="#L"/></g><path fill="#333" d="M195-6C206 82 75 100 31 46c-4-6-6-13-8-21l49-6c3 16 16 24 34 25 40 0 42-37 40-79-11 22-30 35-61 35-53 0-70-43-70-97 0-56 18-96 73-97 30 0 46 14 59 34l2-30h47zm-90-29c32 0 41-27 41-63 0-35-9-62-40-62-32 0-39 29-40 63 0 36 9 62 39 62" id="U"/><g id="g"><use transform="matrix(0.06172839506172778,0,0,0.06172839506172778,0,0)" xlink:href="#C"/><use transform="matrix(0.06172839506172778,0,0,0.06172839506172778,14.814814814814667,0)" xlink:href="#L"/><use transform="matrix(0.06172839506172778,0,0,0.06172839506172778,23.456790123456557,0)" xlink:href="#T"/><use transform="matrix(0.06172839506172778,0,0,0.06172839506172778,36.97530864197494,0)" xlink:href="#M"/><use transform="matrix(0.06172839506172778,0,0,0.06172839506172778,49.3209876543205,0)" xlink:href="#G"/><use transform="matrix(0.06172839506172778,0,0,0.06172839506172778,61.66666666666605,0)" xlink:href="#S"/><use transform="matrix(0.06172839506172778,0,0,0.06172839506172778,74.01234567901162,0)" xlink:href="#S"/><use transform="matrix(0.06172839506172778,0,0,0.06172839506172778,86.35802469135717,0)" xlink:href="#A"/><use transform="matrix(0.06172839506172778,0,0,0.06172839506172778,92.53086419752995,0)" xlink:href="#B"/><use transform="matrix(0.06172839506172778,0,0,0.06172839506172778,106.04938271604834,0)" xlink:href="#U"/></g><path fill="#333" d="M175 0L67-191c6 58 2 128 3 191H24v-248h59L193-55c-6-58-2-129-3-193h46V0h-61" id="V"/><g id="h"><use transform="matrix(0.06172839506172778,0,0,0.06172839506172778,0,0)" xlink:href="#V"/><use transform="matrix(0.06172839506172778,0,0,0.06172839506172778,15.987654320987495,0)" xlink:href="#G"/><use transform="matrix(0.06172839506172778,0,0,0.06172839506172778,28.33333333333305,0)" xlink:href="#H"/><use transform="matrix(0.06172839506172778,0,0,0.06172839506172778,35.67901234567866,0)" xlink:href="#J"/><use transform="matrix(0.06172839506172778,0,0,0.06172839506172778,52.962962962962436,0)" xlink:href="#T"/><use transform="matrix(0.06172839506172778,0,0,0.06172839506172778,66.48148148148081,0)" xlink:href="#L"/><use transform="matrix(0.06172839506172778,0,0,0.06172839506172778,75.1234567901227,0)" xlink:href="#P"/></g><path fill="#333" d="M136-208V0H84v-208H4v-40h212v40h-80" id="W"/><path fill="#333" d="M88-194c31-1 46 15 58 34l-1-101h50l1 261h-48c-2-10 0-23-3-31C134-8 116 4 84 4 32 4 16-41 15-95c0-56 19-97 73-99zm17 164c33 0 40-30 41-66 1-37-9-64-41-64s-38 30-39 65c0 43 13 65 39 65" id="X"/><path fill="#333" d="M14-72v-43h91v43H14" id="Y"/><g id="i"><use transform="matrix(0.07407407407407408,0,0,0.07407407407407408,0,0)" xlink:href="#W"/><use transform="matrix(0.07407407407407408,0,0,0.07407407407407408,16.222222222222225,0)" xlink:href="#N"/><use transform="matrix(0.07407407407407408,0,0,0.07407407407407408,32.44444444444445,0)" xlink:href="#A"/><use transform="matrix(0.07407407407407408,0,0,0.07407407407407408,39.85185185185187,0)" xlink:href="#L"/><use transform="matrix(0.07407407407407408,0,0,0.07407407407407408,50.222222222222236,0)" xlink:href="#X"/><use transform="matrix(0.07407407407407408,0,0,0.07407407407407408,66.44444444444446,0)" xlink:href="#Y"/><use transform="matrix(0.07407407407407408,0,0,0.07407407407407408,75.25925925925927,0)" xlink:href="#C"/><use transform="matrix(0.07407407407407408,0,0,0.07407407407407408,93.03703703703704,0)" xlink:href="#D"/><use transform="matrix(0.07407407407407408,0,0,0.07407407407407408,107.85185185185185,0)" xlink:href="#L"/><use transform="matrix(0.07407407407407408,0,0,0.07407407407407408,118.22222222222221,0)" xlink:href="#H"/><use transform="matrix(0.07407407407407408,0,0,0.07407407407407408,127.03703703703704,0)" xlink:href="#E"/></g><path fill="#333" d="M135-194c53 0 70 44 70 98 0 56-19 98-73 100-31 1-45-17-59-34 3 33 2 69 2 105H25l-1-265h48c2 10 0 23 3 31 11-24 29-35 60-35zM114-30c33 0 39-31 40-66 0-38-9-64-40-64-56 0-55 130 0 130" id="Z"/><g id="j"><use transform="matrix(0.07407407407407408,0,0,0.07407407407407408,0,0)" xlink:href="#y"/><use transform="matrix(0.07407407407407408,0,0,0.07407407407407408,19.185185185185187,0)" xlink:href="#Z"/><use transform="matrix(0.07407407407407408,0,0,0.07407407407407408,35.40740740740741,0)" xlink:href="#Z"/></g><g id="k"><use transform="matrix(0.07407407407407408,0,0,0.07407407407407408,0,0)" xlink:href="#Q"/><use transform="matrix(0.07407407407407408,0,0,0.07407407407407408,19.185185185185187,0)" xlink:href="#R"/><use transform="matrix(0.07407407407407408,0,0,0.07407407407407408,35.40740740740741,0)" xlink:href="#S"/><use transform="matrix(0.07407407407407408,0,0,0.07407407407407408,50.22222222222223,0)" xlink:href="#H"/><use transform="matrix(0.07407407407407408,0,0,0.07407407407407408,59.037037037037045,0)" xlink:href="#T"/><use transform="matrix(0.07407407407407408,0,0,0.07407407407407408,75.25925925925927,0)" xlink:href="#F"/><use transform="matrix(0.07407407407407408,0,0,0.07407407407407408,98.96296296296298,0)" xlink:href="#G"/><use transform="matrix(0.07407407407407408,0,0,0.07407407407407408,113.7777777777778,0)" xlink:href="#L"/></g><g id="l"><use transform="matrix(0.07407407407407408,0,0,0.07407407407407408,0,0)" xlink:href="#K"/><use transform="matrix(0.07407407407407408,0,0,0.07407407407407408,22.148148148148152,0)" xlink:href="#G"/><use transform="matrix(0.07407407407407408,0,0,0.07407407407407408,36.96296296296297,0)" xlink:href="#L"/><use transform="matrix(0.07407407407407408,0,0,0.07407407407407408,47.33333333333334,0)" xlink:href="#M"/><use transform="matrix(0.07407407407407408,0,0,0.07407407407407408,62.14814814814816,0)" xlink:href="#N"/><use transform="matrix(0.07407407407407408,0,0,0.07407407407407408,78.37037037037038,0)" xlink:href="#D"/><use transform="matrix(0.07407407407407408,0,0,0.07407407407407408,93.18518518518519,0)" xlink:href="#B"/><use transform="matrix(0.07407407407407408,0,0,0.07407407407407408,109.40740740740742,0)" xlink:href="#H"/></g><path fill="#333" d="M76-208v77h127v40H76V0H24v-248h183v40H76" id="aa"/><path fill="#333" d="M25 0v-261h50V0H25" id="ab"/><g id="m"><use transform="matrix(0.06172839506172778,0,0,0.06172839506172778,0,0)" xlink:href="#aa"/><use transform="matrix(0.06172839506172778,0,0,0.06172839506172778,13.518518518518384,0)" xlink:href="#A"/><use transform="matrix(0.06172839506172778,0,0,0.06172839506172778,19.691358024691162,0)" xlink:href="#B"/><use transform="matrix(0.06172839506172778,0,0,0.06172839506172778,33.209876543209546,0)" xlink:href="#D"/><use transform="matrix(0.06172839506172778,0,0,0.06172839506172778,45.5555555555551,0)" xlink:href="#B"/><use transform="matrix(0.06172839506172778,0,0,0.06172839506172778,59.074074074073486,0)" xlink:href="#M"/><use transform="matrix(0.06172839506172778,0,0,0.06172839506172778,71.41975308641904,0)" xlink:href="#A"/><use transform="matrix(0.06172839506172778,0,0,0.06172839506172778,77.59259259259181,0)" xlink:href="#D"/><use transform="matrix(0.06172839506172778,0,0,0.06172839506172778,89.93827160493737,0)" xlink:href="#ab"/></g><g id="n"><use transform="matrix(0.07407407407407408,0,0,0.07407407407407408,0,0)" xlink:href="#y"/><use transform="matrix(0.07407407407407408,0,0,0.07407407407407408,19.185185185185187,0)" xlink:href="#Z"/><use transform="matrix(0.07407407407407408,0,0,0.07407407407407408,35.40740740740741,0)" xlink:href="#Z"/></g><path fill="#333" d="M169-182c-1-43-94-46-97-3 18 66 151 10 154 114 3 95-165 93-204 36-6-8-10-19-12-30l50-8c3 46 112 56 116 5-17-69-150-10-154-114-4-87 153-88 188-35 5 8 8 18 10 28" id="ac"/><path fill="#333" d="M128 0H69L1-190h53L99-40l48-150h52" id="ad"/><g id="o"><use transform="matrix(0.07407407407407408,0,0,0.07407407407407408,0,0)" xlink:href="#ac"/><use transform="matrix(0.07407407407407408,0,0,0.07407407407407408,17.77777777777778,0)" xlink:href="#G"/><use transform="matrix(0.07407407407407408,0,0,0.07407407407407408,32.592592592592595,0)" xlink:href="#L"/><use transform="matrix(0.07407407407407408,0,0,0.07407407407407408,42.96296296296297,0)" xlink:href="#ad"/><use transform="matrix(0.07407407407407408,0,0,0.07407407407407408,57.777777777777786,0)" xlink:href="#G"/><use transform="matrix(0.07407407407407408,0,0,0.07407407407407408,72.59259259259261,0)" xlink:href="#L"/></g><g id="p"><use transform="matrix(0.07407407407407408,0,0,0.07407407407407408,0,0)" xlink:href="#y"/><use transform="matrix(0.07407407407407408,0,0,0.07407407407407408,19.185185185185187,0)" xlink:href="#z"/><use transform="matrix(0.07407407407407408,0,0,0.07407407407407408,28.000000000000004,0)" xlink:href="#A"/><use transform="matrix(0.07407407407407408,0,0,0.07407407407407408,35.40740740740741,0)" xlink:href="#z"/><use transform="matrix(0.07407407407407408,0,0,0.07407407407407408,44.22222222222223,0)" xlink:href="#B"/><use transform="matrix(0.07407407407407408,0,0,0.07407407407407408,60.444444444444464,0)" xlink:href="#A"/><use transform="matrix(0.07407407407407408,0,0,0.07407407407407408,67.85185185185186,0)" xlink:href="#C"/><use transform="matrix(0.07407407407407408,0,0,0.07407407407407408,85.62962962962965,0)" xlink:href="#D"/><use transform="matrix(0.07407407407407408,0,0,0.07407407407407408,100.44444444444446,0)" xlink:href="#E"/></g><path fill="#333" d="M147 0H94L2-248h55l64 206c17-72 42-137 63-206h54" id="ae"/><g id="q"><use transform="matrix(0.07407407407407408,0,0,0.07407407407407408,0,0)" xlink:href="#ae"/><use transform="matrix(0.07407407407407408,0,0,0.07407407407407408,17.77777777777778,0)" xlink:href="#W"/></g><path fill="#333" d="M186 0v-106H76V0H24v-248h52v99h110v-99h50V0h-50" id="af"/><g id="r"><use transform="matrix(0.07407407407407408,0,0,0.07407407407407408,0,0)" xlink:href="#af"/><use transform="matrix(0.07407407407407408,0,0,0.07407407407407408,19.185185185185187,0)" xlink:href="#T"/><use transform="matrix(0.07407407407407408,0,0,0.07407407407407408,35.40740740740741,0)" xlink:href="#S"/><use transform="matrix(0.07407407407407408,0,0,0.07407407407407408,50.22222222222223,0)" xlink:href="#H"/><use transform="matrix(0.07407407407407408,0,0,0.07407407407407408,59.037037037037045,0)" xlink:href="#G"/><use transform="matrix(0.07407407407407408,0,0,0.07407407407407408,73.85185185185186,0)" xlink:href="#X"/></g><g id="s"><use transform="matrix(0.07407407407407408,0,0,0.07407407407407408,0,0)" xlink:href="#C"/><use transform="matrix(0.07407407407407408,0,0,0.07407407407407408,17.77777777777778,0)" xlink:href="#D"/><use transform="matrix(0.07407407407407408,0,0,0.07407407407407408,32.592592592592595,0)" xlink:href="#U"/><use transform="matrix(0.07407407407407408,0,0,0.07407407407407408,48.814814814814824,0)" xlink:href="#G"/></g><g id="t"><use transform="matrix(0.07407407407407408,0,0,0.07407407407407408,0,0)" xlink:href="#K"/><use transform="matrix(0.07407407407407408,0,0,0.07407407407407408,22.148148148148152,0)" xlink:href="#G"/><use transform="matrix(0.07407407407407408,0,0,0.07407407407407408,36.96296296296297,0)" xlink:href="#L"/><use transform="matrix(0.07407407407407408,0,0,0.07407407407407408,47.33333333333334,0)" xlink:href="#M"/><use transform="matrix(0.07407407407407408,0,0,0.07407407407407408,62.14814814814816,0)" xlink:href="#N"/><use transform="matrix(0.07407407407407408,0,0,0.07407407407407408,78.37037037037038,0)" xlink:href="#D"/><use transform="matrix(0.07407407407407408,0,0,0.07407407407407408,93.18518518518519,0)" xlink:href="#B"/><use transform="matrix(0.07407407407407408,0,0,0.07407407407407408,109.40740740740742,0)" xlink:href="#H"/></g><path fill="#333" d="M275 0h-61l-44-196L126 0H64L0-248h53L97-49l45-199h58l43 199 44-199h52" id="ag"/><path fill="#333" d="M135-194c52 0 70 43 70 98 0 56-19 99-73 100-30 1-46-15-58-35L72 0H24l1-261h50v104c11-23 29-37 60-37zM114-30c31 0 40-27 40-66 0-37-7-63-39-63s-41 28-41 65c0 36 8 64 40 64" id="ah"/><g id="u"><use transform="matrix(0.07407407407407408,0,0,0.07407407407407408,0,0)" xlink:href="#ag"/><use transform="matrix(0.07407407407407408,0,0,0.07407407407407408,24.592592592592595,0)" xlink:href="#G"/><use transform="matrix(0.07407407407407408,0,0,0.07407407407407408,39.40740740740741,0)" xlink:href="#ah"/><use transform="matrix(0.07407407407407408,0,0,0.07407407407407408,55.62962962962964,0)" xlink:href="#S"/><use transform="matrix(0.07407407407407408,0,0,0.07407407407407408,70.44444444444446,0)" xlink:href="#A"/><use transform="matrix(0.07407407407407408,0,0,0.07407407407407408,77.85185185185186,0)" xlink:href="#H"/><use transform="matrix(0.07407407407407408,0,0,0.07407407407407408,86.66666666666667,0)" xlink:href="#G"/></g><g id="w"><use transform="matrix(0.07407407407407408,0,0,0.07407407407407408,0,0)" xlink:href="#ag"/><use transform="matrix(0.07407407407407408,0,0,0.07407407407407408,24.592592592592595,0)" xlink:href="#G"/><use transform="matrix(0.07407407407407408,0,0,0.07407407407407408,39.40740740740741,0)" xlink:href="#ah"/></g><g id="x"><use transform="matrix(0.07407407407407408,0,0,0.07407407407407408,0,0)" xlink:href="#ac"/><use transform="matrix(0.07407407407407408,0,0,0.07407407407407408,17.77777777777778,0)" xlink:href="#G"/><use transform="matrix(0.07407407407407408,0,0,0.07407407407407408,32.592592592592595,0)" xlink:href="#L"/><use transform="matrix(0.07407407407407408,0,0,0.07407407407407408,42.96296296296297,0)" xlink:href="#ad"/><use transform="matrix(0.07407407407407408,0,0,0.07407407407407408,57.777777777777786,0)" xlink:href="#G"/><use transform="matrix(0.07407407407407408,0,0,0.07407407407407408,72.59259259259261,0)" xlink:href="#L"/></g></defs></g></svg>